<svg width="24" height="24" viewBox="0 0 24 24" fill="none" xmlns="http://www.w3.org/2000/svg">
<path d="M24 12C24 15.512 22.491 18.6716 20.0865 20.8663C17.9531 22.8127 15.1154 24 12 24C8.88464 24 6.04688 22.8127 3.91351 20.8663C1.50897 18.6716 0 15.512 0 12C0 5.37286 5.37286 0 12 0C18.6271 0 24 5.37286 24 12Z" fill="#C0D5FB"/>
<mask id="mask0_1_30" style="mask-type:alpha" maskUnits="userSpaceOnUse" x="0" y="0" width="24" height="24">
<path d="M24 12C24 15.512 22.491 18.6716 20.0865 20.8663C17.9531 22.8127 15.1154 24 12 24C8.88464 24 6.04688 22.8127 3.91351 20.8663C1.50897 18.6716 0 15.512 0 12C0 5.37286 5.37286 0 12 0C18.6271 0 24 5.37286 24 12Z" fill="#C0D5FB"/>
</mask>
<g mask="url(#mask0_1_30)">
<path d="M12.1387 14.7792C11.795 14.507 11.5979 14.0972 11.5979 13.6549V9.00344C11.5979 8.28214 11.8542 7.62053 12.279 7.10699C12.0527 7.03769 11.8129 7 11.5646 7H6.47706C5.11122 7 4 8.12722 4 9.51276V22.753C4 24.1385 5.11119 23.7077 6.47706 23.7077L11.5646 24.5C12.9304 24.5 14 25.3855 14 24L14.0417 14.8622C13.4037 14.989 12.9019 15.3307 12.1387 14.7792ZM8.51875 9.03726H9.52291C10.1438 9.06043 10.1441 9.96496 9.52291 9.98826H8.51875C7.89791 9.96506 7.89756 9.06056 8.51875 9.03726Z" fill="#2F73F2"/>
<path d="M18.025 7H14.5104C13.4214 7 12.5354 7.89876 12.5354 9.00344V13.6549C12.5354 13.8013 12.6019 13.9395 12.7157 14.0297C12.8981 14.1741 13.0931 14.1224 13.1179 14.1162L15.0702 13.621H18.025C19.1023 13.621 20 12.7367 20 11.6176V9.00344C20 7.89876 19.114 7 18.025 7ZM16.5187 12.0593H15.0125C14.3918 12.0362 14.3912 11.1317 15.0125 11.1083H16.5187C17.1394 11.1314 17.1401 12.036 16.5187 12.0593ZM17.5229 10.0221H15.0125C14.3921 9.99907 14.3909 9.09451 15.0125 9.07105H17.5229C17.7818 9.07105 17.9917 9.28395 17.9917 9.54655C17.9917 9.80916 17.7818 10.0221 17.5229 10.0221Z" fill="white"/>
</g>
</svg>
