<svg width="85" height="85" viewBox="0 0 85 85" fill="none" xmlns="http://www.w3.org/2000/svg">
<rect x="1" y="1" width="83" height="83" rx="7" stroke="#EDF4FF" stroke-width="2"/>
<path d="M51.2031 55.2344H58.2344V64.6094H51.2031V55.2344Z" fill="#2F73F2"/>
<path d="M64.875 38.8281H44.5625C43.8376 38.829 43.1426 39.1174 42.63 39.63C42.1174 40.1426 41.829 40.8376 41.8281 41.5625V63.4375C41.8281 63.7483 41.9516 64.0464 42.1714 64.2661C42.3911 64.4859 42.6892 64.6094 43 64.6094H48.8594V54.0625C48.8594 53.7517 48.9829 53.4536 49.2026 53.2339C49.4224 53.0141 49.7205 52.8906 50.0312 52.8906H59.4062C59.717 52.8906 60.0151 53.0141 60.2349 53.2339C60.4546 53.4536 60.5781 53.7517 60.5781 54.0625V64.6094H66.4375C66.7483 64.6094 67.0464 64.4859 67.2661 64.2661C67.4859 64.0464 67.6094 63.7483 67.6094 63.4375V41.5625C67.6085 40.8376 67.3201 40.1426 66.8075 39.63C66.2949 39.1174 65.5999 38.829 64.875 38.8281V38.8281ZM47.4531 48.2031C47.4531 48.5139 47.3297 48.812 47.1099 49.0318C46.8901 49.2515 46.5921 49.375 46.2813 49.375C45.9705 49.375 45.6724 49.2515 45.4526 49.0318C45.2328 48.812 45.1094 48.5139 45.1094 48.2031V43.5156C45.1094 43.2048 45.2328 42.9068 45.4526 42.687C45.6724 42.4672 45.9705 42.3438 46.2813 42.3438C46.5921 42.3438 46.8901 42.4672 47.1099 42.687C47.3297 42.9068 47.4531 43.2048 47.4531 43.5156V48.2031ZM53.0781 48.2031C53.0781 48.5139 52.9547 48.812 52.7349 49.0318C52.5151 49.2515 52.2171 49.375 51.9063 49.375C51.5955 49.375 51.2974 49.2515 51.0776 49.0318C50.8578 48.812 50.7344 48.5139 50.7344 48.2031V43.5156C50.7344 43.2048 50.8578 42.9068 51.0776 42.687C51.2974 42.4672 51.5955 42.3438 51.9063 42.3438C52.2171 42.3438 52.5151 42.4672 52.7349 42.687C52.9547 42.9068 53.0781 43.2048 53.0781 43.5156V48.2031ZM58.7031 48.2031C58.7031 48.5139 58.5797 48.812 58.3599 49.0318C58.1401 49.2515 57.842 49.375 57.5312 49.375C57.2204 49.375 56.9224 49.2515 56.7026 49.0318C56.4828 48.812 56.3594 48.5139 56.3594 48.2031V43.5156C56.3594 43.2048 56.4828 42.9068 56.7026 42.687C56.9224 42.4672 57.2204 42.3438 57.5312 42.3438C57.842 42.3438 58.1401 42.4672 58.3599 42.687C58.5797 42.9068 58.7031 43.2048 58.7031 43.5156V48.2031ZM64.3281 48.2031C64.3281 48.5139 64.2047 48.812 63.9849 49.0318C63.7651 49.2515 63.467 49.375 63.1562 49.375C62.8454 49.375 62.5474 49.2515 62.3276 49.0318C62.1078 48.812 61.9844 48.5139 61.9844 48.2031V43.5156C61.9844 43.2048 62.1078 42.9068 62.3276 42.687C62.5474 42.4672 62.8454 42.3438 63.1562 42.3438C63.467 42.3438 63.7651 42.4672 63.9849 42.687C64.2047 42.9068 64.3281 43.2048 64.3281 43.5156V48.2031Z" fill="#2F73F2"/>
<path d="M44.2779 15.4265L19.2779 21.6764C19.0245 21.7399 18.7995 21.8862 18.6387 22.0922C18.478 22.2981 18.3907 22.5519 18.3906 22.8132V63.4376C18.3906 63.7484 18.5141 64.0464 18.7339 64.2662C18.9536 64.486 19.2517 64.6094 19.5625 64.6095H38.3125C38.6233 64.6095 38.9214 64.486 39.1411 64.2662C39.3609 64.0465 39.4844 63.7484 39.4844 63.4376C39.4844 63.1268 39.3609 62.8287 39.1411 62.6089C38.9214 62.3892 38.6233 62.2657 38.3125 62.2657H37.1406V54.5834C37.1406 54.2726 37.0171 53.9746 36.7974 53.7548C36.5776 53.535 36.2795 53.4116 35.9688 53.4116H28.1562C27.8455 53.4116 27.5474 53.535 27.3276 53.7548C27.1079 53.9746 26.9844 54.2726 26.9844 54.5834V62.2657H20.7344V23.7283L43.3906 18.0643V35.313C43.3906 35.6238 43.5141 35.9219 43.7339 36.1417C43.9536 36.3614 44.2517 36.4849 44.5625 36.4849C44.8733 36.4849 45.1714 36.3614 45.3911 36.1417C45.6109 35.9219 45.7344 35.6238 45.7344 35.313V16.5633C45.7343 16.3852 45.6936 16.2095 45.6154 16.0495C45.5373 15.8895 45.4237 15.7494 45.2833 15.6398C45.1429 15.5302 44.9794 15.4541 44.8052 15.4171C44.631 15.3802 44.4507 15.3834 44.2779 15.4265V15.4265ZM29.3281 55.7553H34.7969V62.2657H29.3281V55.7553Z" fill="#C0D5FB"/>
<path d="M38.3125 45.1655C38.0017 45.1655 37.7036 45.289 37.4839 45.5088C37.2641 45.7285 37.1406 46.0266 37.1406 46.3374V49.8962C37.1406 50.207 37.2641 50.505 37.4839 50.7248C37.7036 50.9446 38.0017 51.068 38.3125 51.068C38.6233 51.068 38.9214 50.9446 39.1411 50.7248C39.3609 50.505 39.4844 50.207 39.4844 49.8962V46.3374C39.4844 46.0266 39.3609 45.7285 39.1411 45.5088C38.9214 45.289 38.6233 45.1655 38.3125 45.1655V45.1655Z" fill="#C0D5FB"/>
<path d="M32.0625 45.1655C31.7517 45.1655 31.4536 45.289 31.2339 45.5088C31.0141 45.7285 30.8906 46.0266 30.8906 46.3374V49.8962C30.8906 50.207 31.0141 50.505 31.2339 50.7248C31.4536 50.9446 31.7517 51.068 32.0625 51.068C32.3733 51.068 32.6714 50.9446 32.8911 50.7248C33.1109 50.505 33.2344 50.207 33.2344 49.8962V46.3374C33.2344 46.0266 33.1109 45.7285 32.8911 45.5088C32.6714 45.289 32.3733 45.1655 32.0625 45.1655V45.1655Z" fill="#C0D5FB"/>
<path d="M25.8125 45.1655C25.5017 45.1655 25.2036 45.289 24.9839 45.5088C24.7641 45.7285 24.6406 46.0266 24.6406 46.3374V49.8962C24.6406 50.207 24.7641 50.505 24.9839 50.7248C25.2036 50.9446 25.5017 51.068 25.8125 51.068C26.1233 51.068 26.4214 50.9446 26.6411 50.7248C26.8609 50.505 26.9844 50.207 26.9844 49.8962V46.3374C26.9844 46.0266 26.8609 45.7285 26.6411 45.5088C26.4214 45.289 26.1233 45.1655 25.8125 45.1655V45.1655Z" fill="#C0D5FB"/>
<path d="M38.3125 36.9189C38.0017 36.919 37.7036 37.0424 37.4839 37.2622C37.2641 37.482 37.1406 37.78 37.1406 38.0908V41.6499C37.1406 41.9607 37.2641 42.2588 37.4839 42.4786C37.7036 42.6983 38.0017 42.8218 38.3125 42.8218C38.6233 42.8218 38.9214 42.6983 39.1411 42.4786C39.3609 42.2588 39.4844 41.9607 39.4844 41.6499V38.0908C39.4844 37.78 39.3609 37.482 39.1411 37.2622C38.9214 37.0424 38.6233 36.919 38.3125 36.9189Z" fill="#C0D5FB"/>
<path d="M33.2344 38.0908C33.2344 37.78 33.1109 37.4819 32.8911 37.2622C32.6714 37.0424 32.3733 36.9189 32.0625 36.9189C31.7517 36.9189 31.4536 37.0424 31.2339 37.2622C31.0141 37.4819 30.8906 37.78 30.8906 38.0908V41.6499C30.8906 41.9607 31.0141 42.2588 31.2339 42.4786C31.4536 42.6983 31.7517 42.8218 32.0625 42.8218C32.3733 42.8218 32.6714 42.6983 32.8911 42.4786C33.1109 42.2588 33.2344 41.9607 33.2344 41.6499V38.0908Z" fill="#C0D5FB"/>
<path d="M26.9844 38.0908C26.9844 37.78 26.8609 37.4819 26.6411 37.2622C26.4214 37.0424 26.1233 36.9189 25.8125 36.9189C25.5017 36.9189 25.2036 37.0424 24.9839 37.2622C24.7641 37.4819 24.6406 37.78 24.6406 38.0908V41.6499C24.6406 41.9607 24.7641 42.2588 24.9839 42.4786C25.2036 42.6983 25.5017 42.8218 25.8125 42.8218C26.1233 42.8218 26.4214 42.6983 26.6411 42.4786C26.8609 42.2588 26.9844 41.9607 26.9844 41.6499V38.0908Z" fill="#C0D5FB"/>
<path d="M38.3125 28.6721C38.0017 28.6721 37.7036 28.7956 37.4839 29.0154C37.2641 29.2351 37.1406 29.5332 37.1406 29.844V33.4031C37.1406 33.7139 37.2641 34.012 37.4839 34.2317C37.7036 34.4515 38.0017 34.575 38.3125 34.575C38.6233 34.575 38.9214 34.4515 39.1411 34.2317C39.3609 34.012 39.4844 33.7139 39.4844 33.4031V29.844C39.4844 29.5332 39.3609 29.2351 39.1411 29.0154C38.9214 28.7956 38.6233 28.6721 38.3125 28.6721Z" fill="#C0D5FB"/>
<path d="M33.2344 29.844C33.2344 29.5332 33.1109 29.2351 32.8911 29.0154C32.6714 28.7956 32.3733 28.6721 32.0625 28.6721C31.7517 28.6721 31.4536 28.7956 31.2339 29.0154C31.0141 29.2351 30.8906 29.5332 30.8906 29.844V33.4031C30.8906 33.7139 31.0141 34.012 31.2339 34.2317C31.4536 34.4515 31.7517 34.575 32.0625 34.575C32.3733 34.575 32.6714 34.4515 32.8911 34.2317C33.1109 34.012 33.2344 33.7139 33.2344 33.4031V29.844Z" fill="#C0D5FB"/>
<path d="M26.9844 29.844C26.9844 29.5332 26.8609 29.2351 26.6411 29.0154C26.4214 28.7956 26.1233 28.6721 25.8125 28.6721C25.5017 28.6721 25.2036 28.7956 24.9839 29.0154C24.7641 29.2351 24.6406 29.5332 24.6406 29.844V33.4031C24.6406 33.7139 24.7641 34.012 24.9839 34.2317C25.2036 34.4515 25.5017 34.575 25.8125 34.575C26.1233 34.575 26.4214 34.4515 26.6411 34.2317C26.8609 34.012 26.9844 33.7139 26.9844 33.4031V29.844Z" fill="#C0D5FB"/>
</svg>
