<svg width="18" height="18" viewBox="0 0 18 18" fill="none" xmlns="http://www.w3.org/2000/svg">
<path d="M15.8906 8.89453H15.8555V3.97266C15.8555 2.80955 14.9092 1.86328 13.7461 1.86328H4.21875C3.05564 1.86328 2.10938 2.80955 2.10938 3.97266V8.89453C0.946266 8.89453 0 9.8408 0 11.0039V14.8711H1.40625V16.1367H2.8125V14.8711H15.1875V16.1367H16.5938V14.8711H18V11.0039C18 9.8408 17.0537 8.89453 15.8906 8.89453ZM3.51562 3.97266C3.51562 3.58495 3.83105 3.26953 4.21875 3.26953H13.7461C14.1338 3.26953 14.4492 3.58495 14.4492 3.97266V8.89453H13.1133V7.83984C13.1133 6.67673 12.167 5.73047 11.0039 5.73047H6.92578C5.76267 5.73047 4.81641 6.67673 4.81641 7.83984V8.89453H3.51562V3.97266ZM11.707 7.83984V8.89453H6.22266V7.83984C6.22266 7.45214 6.53808 7.13672 6.92578 7.13672H11.0039C11.3916 7.13672 11.707 7.45214 11.707 7.83984ZM16.5938 13.4648H1.40625V11.0039C1.40625 10.6162 1.72167 10.3008 2.10938 10.3008H15.8906C16.2783 10.3008 16.5938 10.6162 16.5938 11.0039V13.4648Z" fill="#A3B2CD"/>
</svg>
