<svg width="40" height="40" viewBox="0 0 40 40" fill="none" xmlns="http://www.w3.org/2000/svg">
<path d="M12.9123 20.5291C12.9338 19.6558 12.4293 18.8548 11.6324 18.4969C10.8355 18.139 9.90161 18.2942 9.2632 18.8905L5.61408 22.3361C4.7436 23.1572 4.70354 24.5285 5.5246 25.3989C6.34567 26.2694 7.71693 26.3095 8.58741 25.4884L12.2365 22.0428C12.6548 21.6487 12.8981 21.1037 12.9123 20.5291V20.5291Z" fill="#2F73F2"/>
<path d="M29.5381 2.11296C26.6812 2.02533 23.9074 3.08145 21.8322 5.04699C6.39989 19.6196 21.3276 5.52419 14.5339 11.9403C14.256 12.2075 14.0922 12.5719 14.0771 12.9572C14.0378 14.5291 16.8027 15.7593 18.5465 14.1101L23.7851 9.16559C24.1911 8.78227 24.7328 8.57594 25.2909 8.59199C25.8491 8.60805 26.378 8.84518 26.7613 9.2512L37.1129 20.2224C43.3374 13.5438 38.8841 2.38594 29.5381 2.11296V2.11296Z" fill="#2F73F2"/>
<path d="M20.7852 28.8744C20.8067 28.0011 20.3022 27.2 19.5052 26.8422C18.7083 26.4843 17.7745 26.6395 17.136 27.2358L13.4869 30.6814C12.9239 31.2125 12.6871 32.0037 12.8656 32.7568C13.0441 33.5099 13.6108 34.1106 14.3522 34.3326C15.0937 34.5546 15.8973 34.3641 16.4602 33.833L20.1094 30.3874C20.5278 29.9936 20.7712 29.4488 20.7852 28.8744V28.8744Z" fill="#2F73F2"/>
<path d="M36.5971 21.7186C36.5269 21.6688 36.7452 21.8786 25.7396 10.2147C25.6117 10.0794 25.4354 10.0004 25.2493 9.99512C25.0631 9.98985 24.8826 10.0588 24.7473 10.1867L19.5087 15.1298C18.6833 15.9111 17.5807 16.3316 16.4446 16.2984C15.3085 16.2653 14.2324 15.7811 13.454 14.953C12.9335 14.4038 12.6529 13.6701 12.6741 12.9137C12.6953 12.1574 13.0165 11.4406 13.5669 10.9214L19.3143 5.49403C16.6806 2.66819 12.7353 1.46908 8.9745 2.35141C5.21373 3.23374 2.2134 6.0624 1.11127 9.76473C0.00913991 13.4671 0.973988 17.4761 3.63993 20.2716L4.63502 21.3242C4.69678 21.254 4.64134 21.3165 8.29537 17.8674C9.4166 16.8099 11.0905 16.5928 12.4444 17.3295C13.7982 18.0661 14.5252 19.5895 14.2462 21.1053C15.3724 20.9563 16.5017 21.3574 17.2815 22.1835C18.0613 23.0096 18.3967 24.16 18.1831 25.2758C19.3098 25.128 20.4389 25.5302 21.2185 26.3569C21.9982 27.1836 22.3335 28.3344 22.1199 29.4505C23.2177 29.3042 24.3205 29.6817 25.0983 30.47C25.8761 31.2583 26.2388 32.366 26.0778 33.4617C27.0075 34.0021 28.1929 33.7777 28.8607 32.9349C29.5285 32.0921 29.476 30.8868 28.7375 30.1053L19.3873 20.1986C19.2152 20.0162 19.1534 19.7558 19.2253 19.5156C19.2972 19.2753 19.4919 19.0917 19.7359 19.0338C19.9799 18.976 20.2362 19.0527 20.4084 19.2351L29.7585 29.1446C30.2899 29.7074 31.0812 29.944 31.8343 29.7652C32.5875 29.5865 33.188 29.0195 33.4098 28.2779C33.6315 27.5363 33.4408 26.7327 32.9094 26.1698L23.5585 16.261C23.2983 15.9783 23.3139 15.5389 23.5935 15.2753C23.873 15.0117 24.3126 15.0219 24.5796 15.2982L33.9312 25.207C34.5338 25.8438 35.4607 26.055 36.2798 25.7421C37.0988 25.4293 37.6489 24.654 37.6736 23.7775C37.6413 22.9646 37.2462 22.209 36.5971 21.7186V21.7186Z" fill="white"/>
<path d="M22.6195 30.8182C22.045 30.7999 21.4871 31.0122 21.07 31.4077L17.4209 34.854C16.8579 35.3853 16.6211 36.1765 16.7997 36.9297C16.9783 37.6829 17.5452 38.2836 18.2867 38.5055C19.0283 38.7274 19.8319 38.5369 20.3949 38.0056L24.044 34.56C24.6784 33.9573 24.8887 33.0326 24.5773 32.2149C24.266 31.3972 23.494 30.8464 22.6195 30.8182V30.8182Z" fill="#2F73F2"/>
<path d="M16.8483 24.7017C16.8698 23.8284 16.3653 23.0274 15.5684 22.6695C14.7714 22.3117 13.8376 22.4668 13.1992 23.0631L9.55005 26.5088C8.6947 27.333 8.66235 28.6922 9.47751 29.5563C10.2927 30.4203 11.6515 30.467 12.5241 29.661L16.1732 26.2147C16.5911 25.8207 16.8342 25.2759 16.8483 24.7017V24.7017Z" fill="#2F73F2"/>
</svg>
