<svg width="78" height="78" viewBox="0 0 78 78" fill="none" xmlns="http://www.w3.org/2000/svg">
<circle cx="39" cy="39" r="39" fill="#C0D5FB"/>
<path d="M31.9123 41.5291C31.9338 40.6558 31.4293 39.8548 30.6324 39.4969C29.8355 39.139 28.9016 39.2942 28.2632 39.8905L24.6141 43.3361C23.7436 44.1572 23.7035 45.5285 24.5246 46.3989C25.3457 47.2694 26.7169 47.3095 27.5874 46.4884L31.2365 43.0428C31.6548 42.6487 31.8981 42.1037 31.9123 41.5291Z" fill="#2F73F2"/>
<path d="M48.5381 23.113C45.6812 23.0253 42.9074 24.0814 40.8322 26.047C25.3999 40.6196 40.3276 26.5242 33.5339 32.9403C33.256 33.2075 33.0922 33.5719 33.0771 33.9572C33.0378 35.5291 35.8027 36.7593 37.5465 35.1101L42.7851 30.1656C43.1911 29.7823 43.7328 29.5759 44.2909 29.592C44.8491 29.608 45.378 29.8452 45.7613 30.2512L56.1129 41.2224C62.3374 34.5438 57.8841 23.3859 48.5381 23.113Z" fill="#2F73F2"/>
<path d="M39.7852 49.8744C39.8067 49.0011 39.3022 48.2 38.5052 47.8422C37.7083 47.4843 36.7745 47.6395 36.136 48.2358L32.4869 51.6814C31.9239 52.2125 31.6871 53.0037 31.8656 53.7568C32.0441 54.5099 32.6108 55.1106 33.3522 55.3326C34.0937 55.5546 34.8973 55.3641 35.4602 54.833L39.1094 51.3874C39.5278 50.9936 39.7712 50.4488 39.7852 49.8744Z" fill="#2F73F2"/>
<path d="M55.5971 42.7186C55.5269 42.6688 55.7452 42.8786 44.7396 31.2147C44.6117 31.0794 44.4354 31.0004 44.2493 30.9951C44.0631 30.9899 43.8826 31.0588 43.7473 31.1867L38.5087 36.1298C37.6833 36.9111 36.5807 37.3316 35.4446 37.2984C34.3085 37.2653 33.2324 36.7811 32.454 35.953C31.9335 35.4038 31.6529 34.6701 31.6741 33.9137C31.6953 33.1574 32.0165 32.4406 32.5669 31.9214L38.3143 26.494C35.6806 23.6682 31.7353 22.4691 27.9745 23.3514C24.2137 24.2337 21.2134 27.0624 20.1113 30.7647C19.0091 34.4671 19.974 38.4761 22.6399 41.2716L23.635 42.3242C23.6968 42.254 23.6413 42.3165 27.2954 38.8674C28.4166 37.8099 30.0905 37.5928 31.4444 38.3295C32.7982 39.0661 33.5252 40.5895 33.2462 42.1053C34.3724 41.9563 35.5017 42.3574 36.2815 43.1835C37.0613 44.0096 37.3967 45.16 37.1831 46.2758C38.3098 46.128 39.4389 46.5302 40.2185 47.3569C40.9982 48.1836 41.3335 49.3344 41.1199 50.4505C42.2177 50.3042 43.3205 50.6817 44.0983 51.47C44.8761 52.2583 45.2388 53.366 45.0778 54.4617C46.0075 55.0021 47.1929 54.7777 47.8607 53.9349C48.5285 53.0921 48.476 51.8868 47.7375 51.1053L38.3873 41.1986C38.2152 41.0162 38.1534 40.7558 38.2253 40.5156C38.2972 40.2753 38.4919 40.0917 38.7359 40.0338C38.9799 39.976 39.2362 40.0527 39.4083 40.2351L48.7585 50.1446C49.2899 50.7074 50.0812 50.944 50.8343 50.7652C51.5875 50.5865 52.188 50.0195 52.4098 49.2779C52.6315 48.5363 52.4408 47.7327 51.9094 47.1698L42.5585 37.261C42.2983 36.9783 42.3139 36.5389 42.5935 36.2753C42.873 36.0117 43.3126 36.0219 43.5796 36.2982L52.9312 46.207C53.5338 46.8438 54.4607 47.055 55.2798 46.7421C56.0988 46.4293 56.6489 45.654 56.6736 44.7775C56.6413 43.9646 56.2462 43.209 55.5971 42.7186Z" fill="white"/>
<path d="M41.6195 51.8182C41.045 51.7999 40.4871 52.0122 40.07 52.4077L36.4209 55.854C35.8579 56.3853 35.6211 57.1765 35.7997 57.9297C35.9783 58.6829 36.5452 59.2836 37.2867 59.5055C38.0283 59.7274 38.8319 59.5369 39.3949 59.0056L43.044 55.56C43.6784 54.9573 43.8887 54.0326 43.5773 53.2149C43.266 52.3972 42.494 51.8464 41.6195 51.8182Z" fill="#2F73F2"/>
<path d="M35.8483 45.7017C35.8698 44.8284 35.3653 44.0274 34.5684 43.6695C33.7714 43.3117 32.8376 43.4668 32.1992 44.0631L28.55 47.5088C27.6947 48.333 27.6623 49.6922 28.4775 50.5563C29.2927 51.4203 30.6515 51.467 31.5241 50.661L35.1732 47.2147C35.5911 46.8207 35.8342 46.2759 35.8483 45.7017Z" fill="#2F73F2"/>
</svg>
