<svg width="17" height="17" viewBox="0 0 17 17" fill="none" xmlns="http://www.w3.org/2000/svg">
<g clip-path="url(#clip0_493_156)">
<path d="M17.0079 8.18353L16.2998 10.6739C16.1995 11.0267 15.8321 11.2313 15.4794 11.131C15.1266 11.0307 14.922 10.6634 15.0222 10.3106L15.4899 8.66602H11.1393C10.7393 8.66602 10.3583 8.83813 10.094 9.13825C9.57755 9.72437 8.83333 10.0605 8.05215 10.0605H1.57624L2.38155 12.8959C2.6237 13.7483 3.41162 14.3438 4.29786 14.3438H12.3708C13.1753 14.3438 13.8962 13.8649 14.2073 13.1238C14.3492 12.7857 14.7384 12.6265 15.0766 12.7685C15.4148 12.9106 15.5738 13.2997 15.4319 13.6379C15.0719 14.4954 14.3829 15.1419 13.5469 15.4576V16.3359C13.5469 16.7027 13.2496 17 12.8828 17C12.516 17 12.2188 16.7027 12.2188 16.3359V15.6719H4.81445V16.3359C4.81445 16.7027 4.51718 17 4.15039 17C3.7836 17 3.48633 16.7027 3.48633 16.3359V15.5723C3.05897 15.4651 2.65638 15.2728 2.29633 15.0008C1.71528 14.5616 1.30296 13.9593 1.10387 13.2587L0.0584946 9.57793C0.0395584 9.51114 0.031517 9.44279 0.0338516 9.37495C0.0337219 9.37106 0.0332031 9.36717 0.0332031 9.36328V1.99219C0.0332031 0.893631 0.926834 0 2.02539 0H4.05078C5.14934 0 6.04297 0.893631 6.04297 1.99219C6.04297 2.35898 5.7457 2.65625 5.37891 2.65625C5.01212 2.65625 4.71484 2.35898 4.71484 1.99219C4.71484 1.62605 4.41692 1.32812 4.05078 1.32812H2.02539C1.65925 1.32812 1.36133 1.62605 1.36133 1.99219V8.73242H8.05215C8.45214 8.73242 8.83307 8.56031 9.0974 8.26019C9.61386 7.67407 10.3581 7.33789 11.1393 7.33789H16.3691C16.5773 7.33789 16.7735 7.43555 16.8991 7.6017C17.0245 7.76785 17.0648 7.98328 17.0079 8.18353ZM5.41211 7.10547C5.7789 7.10547 6.07617 6.8082 6.07617 6.44141C6.07617 6.07462 5.7789 5.77734 5.41211 5.77734C5.04532 5.77734 4.74805 6.07462 4.74805 6.44141C4.74805 6.8082 5.04532 7.10547 5.41211 7.10547ZM7.73633 7.10547C8.10312 7.10547 8.40039 6.8082 8.40039 6.44141C8.40039 6.07462 8.10312 5.77734 7.73633 5.77734C7.36954 5.77734 7.07227 6.07462 7.07227 6.44141C7.07227 6.8082 7.36954 7.10547 7.73633 7.10547ZM3.05469 5.77734C2.6879 5.77734 2.39062 6.07462 2.39062 6.44141C2.39062 6.8082 2.6879 7.10547 3.05469 7.10547C3.42148 7.10547 3.71875 6.8082 3.71875 6.44141C3.71875 6.07462 3.42148 5.77734 3.05469 5.77734ZM6.54102 5.11328C6.90781 5.11328 7.20508 4.81601 7.20508 4.44922C7.20508 4.08243 6.90781 3.78516 6.54102 3.78516C6.17422 3.78516 5.87695 4.08243 5.87695 4.44922C5.87695 4.81601 6.17422 5.11328 6.54102 5.11328ZM4.2168 5.11328C4.58359 5.11328 4.88086 4.81601 4.88086 4.44922C4.88086 4.08243 4.58359 3.78516 4.2168 3.78516C3.85001 3.78516 3.55273 4.08243 3.55273 4.44922C3.55273 4.81601 3.85001 5.11328 4.2168 5.11328Z" fill="#A3B2CD"/>
</g>
<defs>
<clipPath id="clip0_493_156">
<rect width="17" height="17" fill="white"/>
</clipPath>
</defs>
</svg>
