<svg width="85" height="85" viewBox="0 0 85 85" fill="none" xmlns="http://www.w3.org/2000/svg">
<rect x="1" y="1" width="83" height="83" rx="7" stroke="#EDF4FF" stroke-width="2"/>
<path d="M30.493 51.7862L42.2118 41.1329C42.4274 40.9366 42.7084 40.8279 42.9999 40.8279C43.2914 40.8279 43.5725 40.9366 43.788 41.1329L55.5068 51.7862C55.6813 51.9455 55.8037 52.1538 55.8578 52.3839C55.912 52.6139 55.8953 52.8549 55.8102 53.0754C55.725 53.2958 55.5752 53.4854 55.3804 53.6192C55.1857 53.7531 54.955 53.825 54.7187 53.8255H31.2812C31.0448 53.825 30.8142 53.7531 30.6194 53.6192C30.4247 53.4853 30.2749 53.2958 30.1897 53.0754C30.1045 52.8549 30.0879 52.6139 30.142 52.3839C30.1961 52.1538 30.3185 51.9455 30.493 51.7862Z" fill="#2F73F2"/>
<path d="M40.2656 60.8569H45.7344V66.6093H40.2656V60.8569Z" fill="#2F73F2"/>
<path d="M32.4531 56.1692V65.4374C32.4531 65.7482 32.5766 66.0462 32.7964 66.266C33.0161 66.4858 33.3142 66.6092 33.625 66.6093H37.9219V59.6848C37.9219 59.374 38.0454 59.076 38.2651 58.8562C38.4849 58.6364 38.783 58.513 39.0938 58.5129H46.9062C47.217 58.513 47.5151 58.6364 47.7349 58.8562C47.9546 59.076 48.0781 59.374 48.0781 59.6848V66.6093H52.375C52.6858 66.6092 52.9839 66.4858 53.2036 66.266C53.4234 66.0462 53.5469 65.7482 53.5469 65.4374V56.1692H32.4531Z" fill="#2F73F2"/>
<path d="M41.0469 27.1563C41.0494 25.4442 40.6018 23.7616 39.749 22.2771C38.8961 20.7926 37.668 19.5584 36.1877 18.6982C34.7074 17.8381 33.027 17.3822 31.315 17.3763C29.6029 17.3704 27.9194 17.8146 26.4332 18.6646C24.9471 19.5145 23.7104 20.7402 22.8474 22.2188C21.9843 23.6974 21.5251 25.3768 21.5158 27.0889C21.5065 28.8009 21.9474 30.4853 22.7944 31.9731C23.6414 33.461 24.8647 34.7 26.3416 35.566C23.9898 36.5442 21.9799 38.1963 20.5651 40.3143C19.1503 42.4324 18.3937 44.9217 18.3906 47.4688V65.4375C18.3907 65.7483 18.5142 66.0463 18.7339 66.2661C18.9537 66.4858 19.2517 66.6093 19.5625 66.6094H28.9375C29.2483 66.6094 29.5464 66.4859 29.7661 66.2662C29.9859 66.0464 30.1094 65.7483 30.1094 65.4375C30.1094 65.1267 29.9859 64.8286 29.7661 64.6089C29.5464 64.3891 29.2483 64.2656 28.9375 64.2656H20.7344V47.4688C20.7322 45.4053 21.3361 43.3867 22.4709 41.6633C23.6058 39.94 25.2217 38.5878 27.1181 37.7746C29.0145 36.9614 31.108 36.7229 33.1387 37.0888C35.1695 37.4547 37.0481 38.4089 38.5414 39.8329C38.6529 39.939 38.7842 40.0221 38.9279 40.0774C39.0715 40.1328 39.2246 40.1593 39.3785 40.1555C39.5324 40.1517 39.684 40.1176 39.8247 40.0551C39.9654 39.9927 40.0924 39.9032 40.1985 39.7917C40.3046 39.6802 40.3877 39.5489 40.4431 39.4052C40.4984 39.2616 40.5249 39.1085 40.5211 38.9546C40.5173 38.8007 40.4832 38.6491 40.4208 38.5084C40.3583 38.3677 40.2688 38.2407 40.1573 38.1346C39.0116 37.0455 37.6757 36.1759 36.2161 35.569C37.6847 34.7094 38.9031 33.4809 39.7505 32.0052C40.5979 30.5295 41.0448 28.8579 41.0469 27.1563ZM31.2813 34.5781C29.8133 34.5781 28.3784 34.1429 27.1579 33.3273C25.9374 32.5118 24.9861 31.3527 24.4243 29.9965C23.8626 28.6403 23.7156 27.148 24.002 25.7083C24.2884 24.2686 24.9952 22.9462 26.0332 21.9082C27.0712 20.8703 28.3936 20.1634 29.8333 19.877C31.273 19.5906 32.7653 19.7376 34.1215 20.2994C35.4776 20.8611 36.6368 21.8124 37.4523 23.0329C38.2678 24.2534 38.7031 25.6884 38.7031 27.1563C38.7009 29.124 37.9182 31.0105 36.5268 32.4019C35.1355 33.7932 33.249 34.5759 31.2813 34.5781Z" fill="#C0D5FB"/>
<path d="M59.6585 35.5661C61.5082 34.4814 62.9495 32.818 63.76 30.8327C64.5704 28.8474 64.7048 26.6505 64.1425 24.5813C63.5802 22.512 62.3524 20.6853 60.6487 19.3831C58.945 18.081 56.8601 17.3758 54.7158 17.3765C52.5714 17.3771 50.4869 18.0835 48.784 19.3867C47.081 20.6898 45.8544 22.5173 45.2933 24.5869C44.7323 26.6565 44.868 28.8533 45.6796 30.8381C46.4912 32.8229 47.9335 34.4854 49.7839 35.569C48.3243 36.1759 46.9884 37.0455 45.8427 38.1346C45.6188 38.3492 45.4891 38.6438 45.4819 38.9538C45.4748 39.2639 45.5908 39.5641 45.8046 39.7888C46.0184 40.0135 46.3125 40.1443 46.6225 40.1525C46.9325 40.1608 47.2332 40.0459 47.4586 39.8329C48.9519 38.4089 50.8305 37.4548 52.8613 37.0889C54.892 36.723 56.9855 36.9614 58.8819 37.7746C60.7784 38.5879 62.3943 39.94 63.5291 41.6634C64.6639 43.3867 65.2678 45.4054 65.2656 47.4688V64.2657H57.0625C56.7517 64.2657 56.4536 64.3892 56.2339 64.6089C56.0141 64.8287 55.8906 65.1268 55.8906 65.4376C55.8906 65.7484 56.0141 66.0464 56.2339 66.2662C56.4536 66.486 56.7517 66.6094 57.0625 66.6094H66.4375C66.7483 66.6094 67.0463 66.4859 67.2661 66.2661C67.4858 66.0464 67.6093 65.7483 67.6094 65.4376V47.4688C67.6063 44.9217 66.8498 42.4324 65.4349 40.3144C64.0201 38.1963 62.0103 36.5442 59.6585 35.5661ZM47.2969 27.1563C47.2969 25.6884 47.7322 24.2535 48.5477 23.0329C49.3632 21.8124 50.5224 20.8611 51.8785 20.2994C53.2347 19.7376 54.727 19.5907 56.1667 19.877C57.6064 20.1634 58.9289 20.8703 59.9668 21.9083C61.0048 22.9462 61.7117 24.2687 61.998 25.7084C62.2844 27.1481 62.1374 28.6404 61.5757 29.9965C61.0139 31.3527 60.0627 32.5118 58.8421 33.3274C57.6216 34.1429 56.1867 34.5782 54.7188 34.5782C52.751 34.5759 50.8646 33.7933 49.4732 32.4019C48.0818 31.0105 47.2991 29.124 47.2969 27.1563Z" fill="#C0D5FB"/>
</svg>
