<svg width="41" height="41" viewBox="0 0 41 41" fill="none" xmlns="http://www.w3.org/2000/svg">
<g clip-path="url(#clip0_469_98)">
<path d="M37.3965 12.0966H34.8804C32.7403 7.01534 28.0281 3.3227 22.6033 2.61745C17.2273 1.90075 11.9452 3.96997 8.48948 8.13531C7.47361 9.35995 6.66779 10.6913 6.07777 12.0966H3.60352C1.61646 12.0966 0 13.7131 0 15.7001V20.5048C0 22.4919 1.61646 24.1083 3.60352 24.1083H8.53641L8.0203 22.533C6.51764 17.9441 7.36342 13.2555 10.3394 9.66961C13.2637 6.14465 17.7294 4.40039 22.2913 4.99865C27.1157 5.6271 31.3034 9.03899 32.9626 13.6931L32.9727 13.72C33.2402 14.4309 33.4279 15.1617 33.5358 15.9136C33.8959 18.16 33.6906 20.4368 32.9434 22.4978L32.9381 22.5121C31.0834 27.778 26.0951 31.3154 20.5235 31.3154C18.5234 31.3154 16.8965 32.9318 16.8965 34.9189C16.8965 36.9059 18.5129 38.5224 20.5 38.5224C22.4871 38.5224 24.1035 36.9059 24.1035 34.9189V33.2989C28.8997 32.1589 32.9283 28.759 34.8647 24.1083H37.3965C39.3835 24.1083 41 22.4918 41 20.5047V15.7001C41 13.713 39.3835 12.0966 37.3965 12.0966V12.0966Z" fill="white"/>
<path d="M9.68945 26.5107V28.913H20.5C26.4613 28.913 31.3105 24.0637 31.3105 18.1025C31.3105 12.1412 26.4613 7.29193 20.5 7.29193C14.5387 7.29193 9.68945 12.1412 9.68945 18.1025C9.68945 20.533 10.5058 22.8814 11.9979 24.7805C11.7082 25.7928 10.7839 26.5107 9.68945 26.5107ZM24.1035 16.9013H26.5059V19.3037H24.1035V16.9013ZM19.2988 16.9013H21.7012V19.3037H19.2988V16.9013ZM14.4941 16.9013H16.8965V19.3037H14.4941V16.9013Z" fill="#2F73F2"/>
</g>
<defs>
<clipPath id="clip0_469_98">
<rect width="41" height="41" fill="white"/>
</clipPath>
</defs>
</svg>
