<svg width="85" height="85" viewBox="0 0 85 85" fill="none" xmlns="http://www.w3.org/2000/svg">
<rect x="1" y="1" width="83" height="83" rx="7" stroke="#EDF4FF" stroke-width="2"/>
<path d="M51.2031 57.2344H58.2344V66.6094H51.2031V57.2344Z" fill="#2F73F2"/>
<path d="M64.875 40.8281H44.5625C43.8376 40.829 43.1426 41.1174 42.63 41.63C42.1174 42.1426 41.829 42.8376 41.8281 43.5625V65.4375C41.8281 65.5914 41.8584 65.7438 41.9173 65.886C41.9762 66.0282 42.0625 66.1574 42.1713 66.2662C42.2801 66.375 42.4093 66.4613 42.5515 66.5202C42.6937 66.5791 42.8461 66.6094 43 66.6094H48.8594V56.0625C48.8594 55.7517 48.9829 55.4536 49.2026 55.2339C49.4224 55.0141 49.7205 54.8906 50.0312 54.8906H59.4062C59.717 54.8906 60.0151 55.0141 60.2349 55.2339C60.4546 55.4536 60.5781 55.7517 60.5781 56.0625V66.6094H66.4375C66.7483 66.6094 67.0464 66.4859 67.2661 66.2661C67.4859 66.0464 67.6094 65.7483 67.6094 65.4375V43.5625C67.6085 42.8376 67.3201 42.1426 66.8075 41.63C66.2949 41.1174 65.5999 40.829 64.875 40.8281ZM61.75 51.7656H47.6875C47.3767 51.7656 47.0786 51.6422 46.8589 51.4224C46.6391 51.2026 46.5156 50.9046 46.5156 50.5938C46.5156 50.2829 46.6391 49.9849 46.8589 49.7651C47.0786 49.5453 47.3767 49.4219 47.6875 49.4219H61.75C62.0608 49.4219 62.3589 49.5453 62.5786 49.7651C62.7984 49.9849 62.9219 50.2829 62.9219 50.5938C62.9219 50.9046 62.7984 51.2026 62.5786 51.4224C62.3589 51.6422 62.0608 51.7656 61.75 51.7656ZM61.75 46.2969H47.6875C47.3767 46.2969 47.0786 46.1734 46.8589 45.9536C46.6391 45.7339 46.5156 45.4358 46.5156 45.125C46.5156 44.8142 46.6391 44.5161 46.8589 44.2964C47.0786 44.0766 47.3767 43.9531 47.6875 43.9531H61.75C62.0608 43.9531 62.3589 44.0766 62.5786 44.2964C62.7984 44.5161 62.9219 44.8142 62.9219 45.125C62.9219 45.4358 62.7984 45.7339 62.5786 45.9536C62.3589 46.1734 62.0608 46.2969 61.75 46.2969Z" fill="#2F73F2"/>
<path d="M43.7812 23.6406H42.6094V20.125C42.6085 19.4001 42.3201 18.7051 41.8075 18.1925C41.2949 17.6799 40.5999 17.3915 39.875 17.3906H24.25C23.5251 17.3915 22.8301 17.6799 22.3175 18.1925C21.8049 18.7051 21.5165 19.4001 21.5156 20.125V23.6406H20.3438C19.8259 23.6412 19.3295 23.8472 18.9634 24.2134C18.5972 24.5795 18.3912 25.0759 18.3906 25.5938V65.4375C18.3906 65.5914 18.4209 65.7438 18.4798 65.886C18.5387 66.0282 18.625 66.1574 18.7338 66.2662C18.8426 66.375 18.9718 66.4613 19.114 66.5202C19.2562 66.5791 19.4086 66.6094 19.5625 66.6094H38.3125C38.6233 66.6094 38.9214 66.4859 39.1411 66.2661C39.3609 66.0464 39.4844 65.7483 39.4844 65.4375C39.4844 65.1267 39.3609 64.8286 39.1411 64.6089C38.9214 64.3891 38.6233 64.2656 38.3125 64.2656H37.1406V56.5832C37.1406 56.4293 37.1104 56.2769 37.0515 56.1347C36.9926 55.9925 36.9063 55.8633 36.7974 55.7545C36.6886 55.6457 36.5594 55.5594 36.4172 55.5005C36.275 55.4416 36.1227 55.4113 35.9688 55.4113H28.1562C28.0024 55.4113 27.85 55.4416 27.7078 55.5005C27.5656 55.5594 27.4364 55.6457 27.3276 55.7545C27.2187 55.8633 27.1324 55.9925 27.0735 56.1347C27.0146 56.2769 26.9844 56.4293 26.9844 56.5832V64.2656H20.7344V25.9844H43.3906V37.3125C43.3906 37.6233 43.5141 37.9214 43.7339 38.1411C43.9536 38.3609 44.2517 38.4844 44.5625 38.4844C44.8733 38.4844 45.1714 38.3609 45.3911 38.1411C45.6109 37.9214 45.7344 37.6233 45.7344 37.3125V25.5938C45.7338 25.0759 45.5279 24.5794 45.1617 24.2133C44.7956 23.8471 44.2991 23.6412 43.7812 23.6406ZM29.3281 57.7551H34.7969V64.2656H29.3281V57.7551ZM40.2656 23.6406H23.8594V20.125C23.8594 20.0214 23.9006 19.9221 23.9739 19.8489C24.0471 19.7756 24.1464 19.7344 24.25 19.7344H39.875C39.9786 19.7344 40.0779 19.7756 40.1511 19.8489C40.2244 19.9221 40.2656 20.0214 40.2656 20.125V23.6406Z" fill="#C0D5FB"/>
<path d="M26.9844 29.5C26.9844 29.1892 26.8609 28.8911 26.6411 28.6714C26.4214 28.4516 26.1233 28.3281 25.8125 28.3281C25.5017 28.3281 25.2036 28.4516 24.9839 28.6714C24.7641 28.8911 24.6406 29.1892 24.6406 29.5V38.3543C24.6406 38.6651 24.7641 38.9632 24.9839 39.1829C25.2036 39.4027 25.5017 39.5262 25.8125 39.5262C26.1233 39.5262 26.4214 39.4027 26.6411 39.1829C26.8609 38.9632 26.9844 38.6651 26.9844 38.3543V29.5Z" fill="#C0D5FB"/>
<path d="M33.2344 29.5C33.2344 29.1892 33.1109 28.8911 32.8911 28.6714C32.6714 28.4516 32.3733 28.3281 32.0625 28.3281C31.7517 28.3281 31.4536 28.4516 31.2339 28.6714C31.0141 28.8911 30.8906 29.1892 30.8906 29.5V38.3543C30.8906 38.6651 31.0141 38.9632 31.2339 39.1829C31.4536 39.4027 31.7517 39.5262 32.0625 39.5262C32.3733 39.5262 32.6714 39.4027 32.8911 39.1829C33.1109 38.9632 33.2344 38.6651 33.2344 38.3543V29.5Z" fill="#C0D5FB"/>
<path d="M38.3125 28.3281C38.1586 28.3281 38.0062 28.3584 37.864 28.4173C37.7218 28.4762 37.5926 28.5625 37.4838 28.6713C37.375 28.7801 37.2887 28.9093 37.2298 29.0515C37.1709 29.1937 37.1406 29.3461 37.1406 29.5V38.3543C37.1406 38.6651 37.2641 38.9632 37.4839 39.1829C37.7036 39.4027 38.0017 39.5262 38.3125 39.5262C38.6233 39.5262 38.9214 39.4027 39.1411 39.1829C39.3609 38.9632 39.4844 38.6651 39.4844 38.3543V29.5C39.4844 29.3461 39.4541 29.1937 39.3952 29.0515C39.3363 28.9093 39.25 28.7801 39.1412 28.6713C39.0324 28.5625 38.9032 28.4762 38.761 28.4173C38.6188 28.3584 38.4664 28.3281 38.3125 28.3281Z" fill="#C0D5FB"/>
<path d="M25.8125 41.8699C25.6586 41.8698 25.5062 41.9001 25.364 41.959C25.2218 42.0179 25.0926 42.1042 24.9838 42.2131C24.875 42.3219 24.7887 42.4511 24.7298 42.5933C24.6709 42.7355 24.6406 42.8878 24.6406 43.0417V51.8957C24.6406 52.2065 24.7641 52.5045 24.9839 52.7243C25.2036 52.9441 25.5017 53.0675 25.8125 53.0675C26.1233 53.0675 26.4214 52.9441 26.6411 52.7243C26.8609 52.5045 26.9844 52.2065 26.9844 51.8957V43.0417C26.9844 42.8878 26.9541 42.7355 26.8952 42.5933C26.8363 42.4511 26.75 42.3219 26.6412 42.2131C26.5324 42.1042 26.4032 42.0179 26.261 41.959C26.1188 41.9001 25.9664 41.8698 25.8125 41.8699Z" fill="#C0D5FB"/>
<path d="M32.0625 41.8699C31.9086 41.8698 31.7562 41.9001 31.614 41.959C31.4718 42.0179 31.3426 42.1042 31.2338 42.2131C31.125 42.3219 31.0387 42.4511 30.9798 42.5933C30.9209 42.7355 30.8906 42.8878 30.8906 43.0417V51.8957C30.8906 52.2065 31.0141 52.5045 31.2339 52.7243C31.4536 52.9441 31.7517 53.0675 32.0625 53.0675C32.3733 53.0675 32.6714 52.9441 32.8911 52.7243C33.1109 52.5045 33.2344 52.2065 33.2344 51.8957V43.0417C33.2344 42.8878 33.2041 42.7355 33.1452 42.5933C33.0863 42.4511 33 42.3219 32.8912 42.2131C32.7824 42.1042 32.6532 42.0179 32.511 41.959C32.3688 41.9001 32.2164 41.8698 32.0625 41.8699Z" fill="#C0D5FB"/>
<path d="M38.3125 41.8699C38.1586 41.8698 38.0062 41.9001 37.864 41.959C37.7218 42.0179 37.5926 42.1042 37.4838 42.2131C37.375 42.3219 37.2887 42.4511 37.2298 42.5933C37.1709 42.7355 37.1406 42.8878 37.1406 43.0417V51.8957C37.1406 52.2065 37.2641 52.5045 37.4839 52.7243C37.7036 52.9441 38.0017 53.0675 38.3125 53.0675C38.6233 53.0675 38.9214 52.9441 39.1411 52.7243C39.3609 52.5045 39.4844 52.2065 39.4844 51.8957V43.0417C39.4844 42.8878 39.4541 42.7355 39.3952 42.5933C39.3363 42.4511 39.25 42.3219 39.1412 42.2131C39.0324 42.1042 38.9032 42.0179 38.761 41.959C38.6188 41.9001 38.4664 41.8698 38.3125 41.8699Z" fill="#C0D5FB"/>
</svg>
