<svg width="135" height="135" viewBox="0 0 135 135" fill="none" xmlns="http://www.w3.org/2000/svg">
<path d="M35.9871 22.0712C29.0031 22.0707 22.2795 24.7224 17.1761 29.4901C12.0726 34.2577 8.97003 40.7855 8.49587 47.7534C8.02171 54.7213 10.2113 61.6093 14.6219 67.0243C19.0324 72.4394 25.3348 75.9775 32.2545 76.9232C32.809 76.9961 33.3698 76.8458 33.8135 76.5052C34.2572 76.1647 34.5474 75.6619 34.6203 75.1073C34.6933 74.5528 34.5429 73.992 34.2024 73.5483C33.8619 73.1047 33.359 72.8144 32.8045 72.7415C27.6912 72.0199 22.9593 69.63 19.3438 65.9428C15.7284 62.2556 13.4317 57.4777 12.8107 52.3512C12.1366 46.6143 13.614 40.8312 16.9571 36.1205C20.3003 31.4099 25.2717 28.1065 30.9097 26.8493C36.5476 25.5922 42.4515 26.4706 47.4792 29.3146C52.507 32.1587 56.3013 36.7663 58.1283 42.2462C59.2666 45.8968 59.4654 49.7755 58.7061 53.5233C54.7272 73.6081 46.7636 92.6919 35.2857 109.647C35.1317 109.878 35.0247 110.136 34.9706 110.408C34.9166 110.68 34.9166 110.959 34.9706 111.231C35.0246 111.503 35.1317 111.761 35.2856 111.991C35.4395 112.222 35.6372 112.42 35.8676 112.574C36.0979 112.727 36.3563 112.835 36.628 112.889C36.8998 112.943 37.1795 112.943 37.4512 112.889C37.9999 112.779 38.4829 112.457 38.7937 111.992C50.5899 94.551 58.7727 74.924 62.859 54.269C63.7453 49.8269 63.4948 45.2329 62.1308 40.9134C60.3077 35.4227 56.8001 30.6464 52.1066 27.2637C47.4131 23.881 41.7726 22.0641 35.9871 22.0712Z" fill="#2F73F2"/>
<path d="M125.333 40.9134C123.78 36.2509 121.008 32.0886 117.305 28.8579C113.602 25.6271 109.102 23.4455 104.272 22.539C99.4423 21.6325 94.4578 22.0342 89.8353 23.7025C85.2128 25.3707 81.1206 28.2448 77.9827 32.0269C74.8448 35.809 72.7755 40.3614 71.9891 45.2124C71.2027 50.0634 71.728 55.0364 73.5104 59.6161C75.2929 64.1958 78.2676 68.2155 82.1264 71.2585C85.9852 74.3016 90.5875 76.2574 95.4565 76.9231C96.0111 76.9961 96.5718 76.8457 97.0155 76.5052C97.4592 76.1647 97.7494 75.6618 97.8224 75.1073C97.8953 74.5528 97.745 73.992 97.4044 73.5483C97.0639 73.1046 96.5611 72.8144 96.0065 72.7415C90.8932 72.0199 86.1613 69.6299 82.5459 65.9428C78.9304 62.2556 76.6338 57.4777 76.0128 52.3512C75.3386 46.6142 76.816 40.8311 80.1592 36.1205C83.5024 31.4099 88.4738 28.1065 94.1117 26.8493C99.7497 25.5921 105.654 26.4705 110.681 29.3146C115.709 32.1587 119.503 36.7663 121.33 42.2462C122.469 45.8967 122.667 49.7755 121.908 53.5233C117.929 73.6081 109.966 92.6919 98.4877 109.647C98.1789 110.113 98.0671 110.681 98.1769 111.229C98.2866 111.776 98.609 112.258 99.0732 112.568C99.5375 112.878 100.106 112.992 100.654 112.884C101.202 112.776 101.684 112.455 101.996 111.992C113.792 94.551 121.975 74.9239 126.061 54.269C126.947 49.8269 126.697 45.2328 125.333 40.9134Z" fill="#2F73F2"/>
</svg>
