<svg width="37" height="37" viewBox="0 0 37 37" fill="none" xmlns="http://www.w3.org/2000/svg">
<path d="M18.5001 10.3882L22.567 12.5265L21.7902 7.99777L25.0825 4.78929L20.5337 4.12874L18.5001 0L16.4665 4.12874L11.9177 4.78929L15.21 7.99777L14.4332 12.5265L18.5001 10.3882Z" fill="white"/>
<path d="M32.2404 11.4996L30.2068 7.37872L28.1732 11.4996L23.6267 12.1601L26.9168 15.3677L26.1399 19.8973L30.2068 17.759L34.276 19.8973L33.4969 15.3677L37.0001 12.1601L32.2404 11.4996Z" fill="white"/>
<path d="M3.50319 15.3677L2.72408 19.8973L6.79325 17.759L10.8602 19.8973L10.0833 15.3677L13.3734 12.1601L8.82685 11.4996L6.79325 7.37872L4.75965 11.4996L0 12.1601L3.50319 15.3677Z" fill="white"/>
<path d="M23.9199 20.668C23.9199 17.6797 21.4883 15.248 18.5 15.248C15.5117 15.248 13.0801 17.6797 13.0801 20.668C13.0801 23.6563 15.5117 26.0879 18.5 26.0879C21.4883 26.0879 23.9199 23.6563 23.9199 20.668Z" fill="#2F73F2"/>
<path d="M10.9121 33.6758V37H26.0879V33.6758C26.0879 29.4923 22.6835 26.0879 18.5 26.0879C14.3165 26.0879 10.9121 29.4923 10.9121 33.6758Z" fill="#2F73F2"/>
<path d="M34.7599 35.8438C34.7599 32.8555 32.3283 30.4238 29.34 30.4238C28.7793 30.4238 28.2492 30.5339 27.7402 30.6926C28.0471 31.6388 28.256 32.6288 28.256 33.6758V37H34.7599V35.8438Z" fill="#2F73F2"/>
<path d="M33.6758 26.0879C33.6758 23.6966 31.7311 21.752 29.3398 21.752C26.9486 21.752 25.0039 23.6966 25.0039 26.0879C25.0039 26.2259 25.0319 26.3563 25.0446 26.491C26.1136 27.4655 26.9757 28.6547 27.5295 30.0151C28.0823 30.2711 28.6917 30.4238 29.3398 30.4238C31.7311 30.4238 33.6758 28.4791 33.6758 26.0879Z" fill="#2F73F2"/>
<path d="M11.9554 26.491C11.9681 26.3563 11.9961 26.2259 11.9961 26.0879C11.9961 23.6966 10.0514 21.752 7.66016 21.752C5.2689 21.752 3.32422 23.6966 3.32422 26.0879C3.32422 28.4791 5.2689 30.4238 7.66016 30.4238C8.30829 30.4238 8.91775 30.2711 9.47047 30.0154C10.0243 28.6547 10.8864 27.4655 11.9554 26.491Z" fill="#2F73F2"/>
<path d="M2.24023 35.8438V37H8.74414V33.6758C8.74414 32.6288 8.95303 31.6388 9.25988 30.6926C8.75092 30.5339 8.22078 30.4238 7.66016 30.4238C4.67186 30.4238 2.24023 32.8555 2.24023 35.8438Z" fill="#2F73F2"/>
</svg>
