<svg width="85" height="85" viewBox="0 0 85 85" fill="none" xmlns="http://www.w3.org/2000/svg">
<rect x="1" y="1" width="83" height="83" rx="7" stroke="#EDF4FF" stroke-width="2"/>
<path d="M44.1719 52.5469L44.1727 57.2344H48.8594V52.5469H46.5156H44.1719Z" fill="#2F73F2"/>
<path d="M40.6562 50.2031H43H45.3438V45.5164H40.6562V50.2031Z" fill="#2F73F2"/>
<path d="M55.5069 42.4112L43.7881 31.7579C43.5725 31.5616 43.2915 31.4529 43 31.4529C42.7085 31.4529 42.4275 31.5616 42.2119 31.7579L30.4931 42.4112C30.3723 42.521 30.2757 42.6549 30.2097 42.8042C30.1436 42.9535 30.1094 43.115 30.1094 43.2783V56.0625C30.1094 56.3733 30.2329 56.6713 30.4526 56.8911C30.6724 57.1108 30.9705 57.2343 31.2812 57.2343H34.7969V51.3753C34.7969 51.0645 34.9204 50.7665 35.1401 50.5467C35.3599 50.327 35.658 50.2035 35.9688 50.2035H38.3125V44.3445C38.3125 44.0337 38.436 43.7356 38.6557 43.5159C38.8755 43.2961 39.1736 43.1726 39.4844 43.1726H46.5156C46.8264 43.1726 47.1245 43.2961 47.3442 43.5159C47.564 43.7356 47.6875 44.0337 47.6875 44.3445V50.2035H50.0312C50.342 50.2035 50.6401 50.327 50.8599 50.5467C51.0796 50.7665 51.2031 51.0646 51.2031 51.3754V57.2343H54.7188C55.0295 57.2343 55.3276 57.1108 55.5474 56.8911C55.7671 56.6713 55.8906 56.3733 55.8906 56.0625V43.2783C55.8906 43.115 55.8564 42.9535 55.7903 42.8042C55.7243 42.6549 55.6277 42.521 55.5069 42.4112Z" fill="#2F73F2"/>
<path d="M37.1406 57.2344H41.8281V52.5469H39.4844H37.1406V57.2344Z" fill="#2F73F2"/>
<path d="M24.25 61.9219H61.75C62.0608 61.9219 62.3589 61.7984 62.5786 61.5786C62.7984 61.3589 62.9219 61.0608 62.9219 60.75C62.9219 60.4392 62.7984 60.1411 62.5786 59.9214C62.3589 59.7016 62.0608 59.5781 61.75 59.5781H24.25C23.9392 59.5781 23.6411 59.7016 23.4214 59.9214C23.2016 60.1411 23.0781 60.4392 23.0781 60.75C23.0781 61.0608 23.2016 61.3589 23.4214 61.5786C23.6411 61.7984 23.9392 61.9219 24.25 61.9219Z" fill="#C0D5FB"/>
<path d="M64.875 17.3906H21.125C20.4001 17.3915 19.7051 17.6799 19.1925 18.1925C18.6799 18.7051 18.3915 19.4001 18.3906 20.125V63.875C18.3915 64.5999 18.6799 65.2949 19.1925 65.8075C19.7051 66.3201 20.4001 66.6085 21.125 66.6094H64.875C65.5999 66.6085 66.2949 66.3201 66.8075 65.8075C67.3201 65.2949 67.6085 64.5999 67.6094 63.875V20.125C67.6085 19.4001 67.3201 18.7051 66.8075 18.1925C66.2949 17.6799 65.5999 17.3915 64.875 17.3906ZM65.2656 63.875C65.2655 63.9786 65.2243 64.0778 65.1511 64.1511C65.0778 64.2243 64.9786 64.2655 64.875 64.2656H21.125C21.0214 64.2655 20.9222 64.2243 20.8489 64.1511C20.7757 64.0778 20.7345 63.9786 20.7344 63.875V29.1094H65.2656V63.875ZM65.2656 26.7656H20.7344V20.125C20.7345 20.0214 20.7757 19.9222 20.8489 19.8489C20.9222 19.7757 21.0214 19.7345 21.125 19.7344H64.875C64.9786 19.7345 65.0778 19.7757 65.1511 19.8489C65.2243 19.9222 65.2655 20.0214 65.2656 20.125V26.7656Z" fill="#C0D5FB"/>
<path d="M31.2812 22.0781H24.25C23.9392 22.0781 23.6411 22.2016 23.4214 22.4214C23.2016 22.6411 23.0781 22.9392 23.0781 23.25C23.0781 23.5608 23.2016 23.8589 23.4214 24.0786C23.6411 24.2984 23.9392 24.4219 24.25 24.4219H31.2812C31.5921 24.4219 31.8901 24.2984 32.1099 24.0786C32.3297 23.8589 32.4531 23.5608 32.4531 23.25C32.4531 22.9392 32.3297 22.6411 32.1099 22.4214C31.8901 22.2016 31.5921 22.0781 31.2812 22.0781Z" fill="#C0D5FB"/>
</svg>
