<svg width="78" height="78" viewBox="0 0 78 78" fill="none" xmlns="http://www.w3.org/2000/svg">
<circle cx="39" cy="39" r="39" fill="#C0D5FB"/>
<g clip-path="url(#clip0_830_6)">
<path d="M56.3965 31.0966H53.8804C51.7403 26.0153 47.0281 22.3227 41.6033 21.6174C36.2273 20.9007 30.9452 22.97 27.4895 27.1353C26.4736 28.3599 25.6678 29.6913 25.0778 31.0966H22.6035C20.6165 31.0966 19 32.7131 19 34.7001V39.5048C19 41.4919 20.6165 43.1083 22.6035 43.1083H27.5364L27.0203 41.533C25.5176 36.9441 26.3634 32.2555 29.3394 28.6696C32.2637 25.1446 36.7294 23.4004 41.2913 23.9987C46.1157 24.6271 50.3034 28.039 51.9626 32.6931L51.9727 32.72C52.2402 33.4309 52.4279 34.1617 52.5358 34.9136C52.8959 37.16 52.6906 39.4368 51.9434 41.4978L51.9381 41.5121C50.0834 46.778 45.0951 50.3154 39.5235 50.3154C37.5234 50.3154 35.8965 51.9318 35.8965 53.9189C35.8965 55.9059 37.5129 57.5224 39.5 57.5224C41.4871 57.5224 43.1035 55.9059 43.1035 53.9189V52.2989C47.8997 51.1589 51.9283 47.759 53.8647 43.1083H56.3965C58.3835 43.1083 60 41.4918 60 39.5047V34.7001C60 32.713 58.3835 31.0966 56.3965 31.0966V31.0966Z" fill="white"/>
<path d="M28.6895 45.5107V47.913H39.5C45.4613 47.913 50.3105 43.0637 50.3105 37.1025C50.3105 31.1412 45.4613 26.2919 39.5 26.2919C33.5387 26.2919 28.6895 31.1412 28.6895 37.1025C28.6895 39.533 29.5058 41.8814 30.9979 43.7805C30.7082 44.7928 29.7839 45.5107 28.6895 45.5107ZM43.1035 35.9013H45.5059V38.3037H43.1035V35.9013ZM38.2988 35.9013H40.7012V38.3037H38.2988V35.9013ZM33.4941 35.9013H35.8965V38.3037H33.4941V35.9013Z" fill="#2F73F2"/>
</g>
<defs>
<clipPath id="clip0_830_6">
<rect width="41" height="41" fill="white" transform="translate(19 19)"/>
</clipPath>
</defs>
</svg>
