<svg width="78" height="78" viewBox="0 0 78 78" fill="none" xmlns="http://www.w3.org/2000/svg">
<circle cx="39" cy="39" r="39" fill="#C0D5FB"/>
<path d="M39.5001 28.3882L43.567 30.5265L42.7902 25.9978L46.0825 22.7893L41.5337 22.1287L39.5001 18L37.4665 22.1287L32.9177 22.7893L36.21 25.9978L35.4332 30.5265L39.5001 28.3882Z" fill="white"/>
<path d="M53.2404 29.4996L51.2068 25.3787L49.1732 29.4996L44.6267 30.1601L47.9168 33.3677L47.1399 37.8973L51.2068 35.759L55.276 37.8973L54.4969 33.3677L58.0001 30.1601L53.2404 29.4996Z" fill="white"/>
<path d="M24.5032 33.3677L23.7241 37.8973L27.7933 35.759L31.8602 37.8973L31.0833 33.3677L34.3734 30.1601L29.8269 29.4996L27.7933 25.3787L25.7597 29.4996L21 30.1601L24.5032 33.3677Z" fill="white"/>
<path d="M44.9199 38.668C44.9199 35.6797 42.4883 33.248 39.5 33.248C36.5117 33.248 34.0801 35.6797 34.0801 38.668C34.0801 41.6563 36.5117 44.0879 39.5 44.0879C42.4883 44.0879 44.9199 41.6563 44.9199 38.668Z" fill="#2F73F2"/>
<path d="M31.9121 51.6758V55H47.0879V51.6758C47.0879 47.4923 43.6835 44.0879 39.5 44.0879C35.3165 44.0879 31.9121 47.4923 31.9121 51.6758Z" fill="#2F73F2"/>
<path d="M55.7599 53.8438C55.7599 50.8555 53.3283 48.4238 50.34 48.4238C49.7793 48.4238 49.2492 48.5339 48.7402 48.6926C49.0471 49.6388 49.256 50.6288 49.256 51.6758V55H55.7599V53.8438Z" fill="#2F73F2"/>
<path d="M54.6758 44.0879C54.6758 41.6966 52.7311 39.752 50.3398 39.752C47.9486 39.752 46.0039 41.6966 46.0039 44.0879C46.0039 44.2259 46.0319 44.3563 46.0446 44.491C47.1136 45.4655 47.9757 46.6547 48.5295 48.0151C49.0823 48.2711 49.6917 48.4238 50.3398 48.4238C52.7311 48.4238 54.6758 46.4791 54.6758 44.0879Z" fill="#2F73F2"/>
<path d="M32.9554 44.491C32.9681 44.3563 32.9961 44.2259 32.9961 44.0879C32.9961 41.6966 31.0514 39.752 28.6602 39.752C26.2689 39.752 24.3242 41.6966 24.3242 44.0879C24.3242 46.4791 26.2689 48.4238 28.6602 48.4238C29.3083 48.4238 29.9177 48.2711 30.4705 48.0154C31.0243 46.6547 31.8864 45.4655 32.9554 44.491Z" fill="#2F73F2"/>
<path d="M23.2402 53.8438V55H29.7441V51.6758C29.7441 50.6288 29.953 49.6388 30.2599 48.6926C29.7509 48.5339 29.2208 48.4238 28.6602 48.4238C25.6719 48.4238 23.2402 50.8555 23.2402 53.8438Z" fill="#2F73F2"/>
</svg>
