<svg width="85" height="85" viewBox="0 0 85 85" fill="none" xmlns="http://www.w3.org/2000/svg">
<rect x="1" y="1" width="83" height="83" rx="7" stroke="#EDF4FF" stroke-width="2"/>
<path d="M33.5601 31.4531H25.8773V40.8281H33.5601V31.4531Z" fill="#2F73F2"/>
<path d="M40.4686 23.5187L30.3123 17.5525C30.1323 17.4468 29.9274 17.3911 29.7187 17.3911C29.5101 17.3911 29.3051 17.4468 29.1252 17.5525L18.9689 23.5187C18.7927 23.6219 18.6467 23.7695 18.5452 23.9467C18.4437 24.1239 18.3904 24.3246 18.3906 24.5288V39.6564C18.3907 39.9671 18.5142 40.2652 18.7339 40.4849C18.9537 40.7047 19.2517 40.8282 19.5625 40.8282H23.5336V30.2814C23.5337 29.9706 23.6572 29.6726 23.8769 29.4528C24.0967 29.2331 24.3947 29.1096 24.7055 29.1095H34.732C35.0428 29.1096 35.3408 29.2331 35.5606 29.4528C35.7803 29.6726 35.9038 29.9706 35.9039 30.2814V40.8282H39.875C40.1858 40.8282 40.4838 40.7047 40.7035 40.4849C40.9233 40.2652 41.0468 39.9671 41.0469 39.6564V24.5288C41.047 24.3246 40.9938 24.1239 40.8923 23.9467C40.7908 23.7695 40.6448 23.6219 40.4686 23.5187Z" fill="#2F73F2"/>
<path d="M67.0311 23.5187L56.8748 17.5525C56.6949 17.4468 56.4899 17.3911 56.2813 17.3911C56.0726 17.3911 55.8677 17.4468 55.6877 17.5525L45.5314 23.5187C45.3552 23.6219 45.2092 23.7695 45.1077 23.9467C45.0062 24.1239 44.9529 24.3246 44.9531 24.5288V39.6564C44.9532 39.9671 45.0767 40.2652 45.2964 40.4849C45.5162 40.7047 45.8142 40.8282 46.125 40.8282H66.4375C66.7483 40.8282 67.0463 40.7047 67.2661 40.4849C67.4858 40.2652 67.6093 39.9671 67.6094 39.6564V24.5288C67.6096 24.3246 67.5563 24.1239 67.4548 23.9467C67.3534 23.7695 67.2073 23.6219 67.0311 23.5187ZM59.3414 38.4845H53.2211V31.4532H59.3414V38.4845ZM65.2656 38.4845H61.6852V30.2814C61.6851 29.9706 61.5616 29.6726 61.3418 29.4528C61.1221 29.2331 60.8241 29.1096 60.5133 29.1095H52.0492C51.7384 29.1096 51.4404 29.2331 51.2207 29.4528C51.0009 29.6726 50.8774 29.9706 50.8773 30.2814V38.4845H47.2969V25.1994L56.2813 19.9214L65.2656 25.1994V38.4845Z" fill="#C0D5FB"/>
<path d="M40.4686 49.2999L30.3123 43.3337C30.1323 43.2281 29.9274 43.1724 29.7187 43.1724C29.5101 43.1724 29.3051 43.2281 29.1252 43.3337L18.9689 49.2999C18.7927 49.4031 18.6467 49.5507 18.5452 49.7279C18.4437 49.9051 18.3904 50.1058 18.3906 50.31V65.4376C18.3907 65.7484 18.5142 66.0464 18.7339 66.2662C18.9537 66.4859 19.2517 66.6094 19.5625 66.6095H39.875C40.1858 66.6094 40.4838 66.4859 40.7035 66.2662C40.9233 66.0464 41.0468 65.7484 41.0469 65.4376V50.31C41.047 50.1058 40.9938 49.9051 40.8923 49.7279C40.7908 49.5507 40.6448 49.4031 40.4686 49.2999ZM32.7789 64.2657H26.6586V57.2345H32.7789V64.2657ZM38.7031 64.2657H35.1227V56.0626C35.1226 55.7518 34.9991 55.4538 34.7793 55.2341C34.5596 55.0143 34.2616 54.8908 33.9508 54.8907H25.4867C25.1759 54.8908 24.8779 55.0143 24.6582 55.2341C24.4384 55.4538 24.3149 55.7518 24.3148 56.0626V64.2657H20.7344V50.9807L29.7187 45.7027L38.7031 50.9807V64.2657Z" fill="#C0D5FB"/>
<path d="M67.0311 49.2999L56.8748 43.3337C56.6949 43.2281 56.4899 43.1724 56.2813 43.1724C56.0726 43.1724 55.8677 43.2281 55.6877 43.3337L45.5314 49.2999C45.3552 49.4031 45.2091 49.5507 45.1077 49.7279C45.0062 49.9052 44.9529 50.1059 44.9531 50.3101V65.4376C44.9532 65.7484 45.0767 66.0464 45.2964 66.2662C45.5162 66.4859 45.8142 66.6094 46.125 66.6095H66.4375C66.7483 66.6094 67.0463 66.4859 67.2661 66.2662C67.4858 66.0464 67.6093 65.7484 67.6094 65.4376V50.31C67.6096 50.1058 67.5563 49.9051 67.4548 49.7279C67.3534 49.5507 67.2073 49.4031 67.0311 49.2999ZM59.3414 64.2657H53.2211V57.2345H59.3414V64.2657ZM65.2656 64.2657H61.6852V56.0626C61.6851 55.7518 61.5616 55.4538 61.3418 55.2341C61.1221 55.0143 60.8241 54.8908 60.5133 54.8907H52.0492C51.7384 54.8908 51.4404 55.0143 51.2207 55.2341C51.0009 55.4538 50.8774 55.7518 50.8773 56.0626V64.2657H47.2969V50.9807L56.2813 45.7027L65.2656 50.9807V64.2657Z" fill="#C0D5FB"/>
</svg>
