<svg width="85" height="85" viewBox="0 0 85 85" fill="none" xmlns="http://www.w3.org/2000/svg">
<rect x="1" y="1" width="83" height="83" rx="7" stroke="#EDF4FF" stroke-width="2"/>
<path d="M27.7656 58.0156H34.7969V66.6094H27.7656V58.0156Z" fill="#2F73F2"/>
<path d="M43.6779 49.3536L31.9591 41.0441C31.7609 40.9037 31.5241 40.8284 31.2812 40.8284C31.0384 40.8284 30.8016 40.9037 30.6034 41.0441L18.8846 49.3536C18.7319 49.462 18.6074 49.6053 18.5214 49.7716C18.4355 49.9379 18.3906 50.1224 18.3906 50.3096V65.4376C18.3906 65.5915 18.4209 65.7439 18.4798 65.886C18.5387 66.0282 18.625 66.1574 18.7338 66.2662C18.8426 66.3751 18.9718 66.4614 19.114 66.5203C19.2562 66.5792 19.4086 66.6095 19.5625 66.6094H25.4219V56.8438C25.4219 56.6899 25.4521 56.5375 25.511 56.3953C25.5699 56.2531 25.6562 56.1239 25.7651 56.0151C25.8739 55.9063 26.0031 55.82 26.1453 55.7611C26.2875 55.7022 26.4399 55.6719 26.5938 55.6719H35.9688C36.1227 55.6719 36.275 55.7022 36.4172 55.7611C36.5594 55.82 36.6886 55.9063 36.7974 56.0151C36.9063 56.1239 36.9926 56.2531 37.0515 56.3953C37.1104 56.5375 37.1406 56.6899 37.1406 56.8438V66.6094H43C43.1539 66.6095 43.3063 66.5792 43.4485 66.5203C43.5907 66.4614 43.7199 66.3751 43.8287 66.2662C43.9375 66.1574 44.0238 66.0282 44.0827 65.886C44.1416 65.7439 44.1719 65.5915 44.1719 65.4376V50.3096C44.1719 50.1224 44.127 49.9379 44.0411 49.7716C43.9551 49.6053 43.8306 49.462 43.6779 49.3536ZM28.1562 53.3282H23.4688C23.1579 53.3282 22.8599 53.2047 22.6401 52.9849C22.4203 52.7652 22.2969 52.4671 22.2969 52.1563C22.2969 51.8455 22.4203 51.5474 22.6401 51.3277C22.8599 51.1079 23.1579 50.9844 23.4688 50.9844H28.1562C28.4671 50.9844 28.7651 51.1079 28.9849 51.3277C29.2047 51.5474 29.3281 51.8455 29.3281 52.1563C29.3281 52.4671 29.2047 52.7652 28.9849 52.9849C28.7651 53.2047 28.4671 53.3282 28.1562 53.3282ZM39.0938 53.3282H34.4062C34.0954 53.3282 33.7974 53.2047 33.5776 52.9849C33.3578 52.7652 33.2344 52.4671 33.2344 52.1563C33.2344 51.8455 33.3578 51.5474 33.5776 51.3277C33.7974 51.1079 34.0954 50.9844 34.4062 50.9844H39.0938C39.4046 50.9844 39.7026 51.1079 39.9224 51.3277C40.1422 51.5474 40.2656 51.8455 40.2656 52.1563C40.2656 52.4671 40.1422 52.7652 39.9224 52.9849C39.7026 53.2047 39.4046 53.3282 39.0938 53.3282Z" fill="#2F73F2"/>
<path d="M41.8281 26.375V31.0625C41.8281 31.2164 41.8584 31.3688 41.9173 31.511C41.9762 31.6532 42.0625 31.7824 42.1713 31.8912C42.2801 32 42.4093 32.0863 42.5515 32.1452C42.6937 32.2041 42.8461 32.2344 43 32.2344H47.6875C47.8414 32.2344 47.9938 32.2041 48.136 32.1452C48.2782 32.0863 48.4074 32 48.5162 31.8912C48.625 31.7824 48.7113 31.6532 48.7702 31.511C48.8291 31.3688 48.8594 31.2164 48.8594 31.0625V26.375C48.8594 26.2211 48.8291 26.0687 48.7702 25.9265C48.7113 25.7843 48.625 25.6551 48.5162 25.5463C48.4074 25.4375 48.2782 25.3512 48.136 25.2923C47.9938 25.2334 47.8414 25.2031 47.6875 25.2031H43C42.8461 25.2031 42.6937 25.2334 42.5515 25.2923C42.4093 25.3512 42.2801 25.4375 42.1713 25.5463C42.0625 25.6551 41.9762 25.7843 41.9173 25.9265C41.8584 26.0687 41.8281 26.2211 41.8281 26.375ZM44.1719 27.5469H46.5156V29.8906H44.1719V27.5469Z" fill="#C0D5FB"/>
<path d="M67.1154 32.564L46.0216 17.6066C45.8234 17.4662 45.5866 17.3909 45.3438 17.3909C45.1009 17.3909 44.8641 17.4662 44.6659 17.6066L23.5721 32.564C23.4194 32.6723 23.2949 32.8156 23.2089 32.982C23.123 33.1483 23.0781 33.3328 23.0781 33.52V41.2394C23.0781 41.5502 23.2016 41.8483 23.4214 42.068C23.6411 42.2878 23.9392 42.4113 24.25 42.4113C24.5608 42.4113 24.8589 42.2878 25.0786 42.068C25.2984 41.8483 25.4219 41.5502 25.4219 41.2394V37.4255H65.2656V64.2657H62.9219V51.3751C62.9219 51.2212 62.8916 51.0688 62.8327 50.9266C62.7738 50.7844 62.6875 50.6552 62.5787 50.5464C62.4699 50.4375 62.3407 50.3512 62.1985 50.2923C62.0563 50.2335 61.9039 50.2032 61.75 50.2032H47.6875C47.5336 50.2032 47.3812 50.2335 47.239 50.2923C47.0968 50.3512 46.9676 50.4375 46.8588 50.5464C46.75 50.6552 46.6637 50.7844 46.6048 50.9266C46.5459 51.0688 46.5156 51.2212 46.5156 51.3751V65.4376C46.5156 65.5915 46.5459 65.7439 46.6048 65.886C46.6637 66.0282 46.75 66.1574 46.8588 66.2663C46.9676 66.3751 47.0968 66.4614 47.239 66.5203C47.3812 66.5792 47.5336 66.6095 47.6875 66.6094H66.4375C66.5914 66.6095 66.7438 66.5792 66.886 66.5203C67.0282 66.4614 67.1574 66.3751 67.2662 66.2663C67.375 66.1574 67.4613 66.0282 67.5202 65.886C67.5791 65.7439 67.6094 65.5915 67.6094 65.4376V33.52C67.6094 33.3328 67.5645 33.1483 67.4786 32.982C67.3926 32.8156 67.2681 32.6723 67.1154 32.564ZM60.5781 64.2657H48.8594V61.9219H60.5781V64.2657ZM60.5781 59.5782H48.8594V57.2344H60.5781V59.5782ZM60.5781 54.8907H48.8594V52.5469H60.5781V54.8907ZM65.2656 35.0817H25.4219V34.1258L45.3438 19.9992L65.2656 34.1257V35.0817Z" fill="#C0D5FB"/>
<path d="M47.6875 47.8593H61.75C61.9039 47.8593 62.0563 47.829 62.1985 47.7701C62.3407 47.7112 62.4699 47.6249 62.5787 47.5161C62.6875 47.4072 62.7738 47.2781 62.8327 47.1359C62.8916 46.9937 62.9219 46.8413 62.9219 46.6874V40.9409C62.9219 40.787 62.8916 40.6346 62.8327 40.4924C62.7738 40.3502 62.6875 40.221 62.5787 40.1122C62.4699 40.0034 62.3407 39.9171 62.1985 39.8582C62.0563 39.7993 61.9039 39.769 61.75 39.769H47.6875C47.5336 39.769 47.3812 39.7993 47.239 39.8582C47.0968 39.9171 46.9676 40.0034 46.8588 40.1122C46.75 40.221 46.6637 40.3502 46.6048 40.4924C46.5459 40.6346 46.5156 40.787 46.5156 40.9409V46.6874C46.5156 46.8413 46.5459 46.9937 46.6048 47.1359C46.6637 47.2781 46.75 47.4072 46.8588 47.5161C46.9676 47.6249 47.0968 47.7112 47.239 47.7701C47.3812 47.829 47.5336 47.8593 47.6875 47.8593ZM48.8594 42.1128H60.5781V45.5155H48.8594V42.1128Z" fill="#C0D5FB"/>
</svg>
