<svg width="156" height="38" viewBox="0 0 156 38" fill="none" xmlns="http://www.w3.org/2000/svg">
<path d="M28.2733 8.92389L31.5465 5.55724C27.455 1.96104 27.7525 2.57317 24.6281 1.04287C22.1285 -0.181369 17.7345 -0.0793488 15.8499 0.124691C13.8909 0.405246 9.13979 1.79272 5.80705 5.09816C1.64113 9.22997 1.12039 12.9027 0.748428 13.5913C0.376471 14.28 -0.441835 17.4171 0.302079 22.5436C0.897211 26.6448 3.42652 30.2716 4.61678 31.5723C4.59199 28.0781 4.55727 20.6766 4.61678 19.0239C4.69117 16.958 4.468 18.0292 5.50948 13.9739C6.55096 9.9186 11.312 6.70496 11.4608 6.70496C11.6096 6.70496 14.0645 4.56254 19.3463 4.79209C23.5717 4.97572 27.0582 7.62314 28.2733 8.92389Z" fill="#2F73F2"/>
<path d="M9.22906 35.4746C10.0027 36.0867 12.6263 37.0559 13.8413 37.464V27.2875C16.2219 28.4352 18.6024 28.8178 21.5037 27.9761C23.8247 27.3028 25.8432 24.839 26.5623 23.6913C27.4798 22.3395 28.7643 18.5954 26.5623 14.433C24.3603 10.2706 20.0406 9.38299 18.156 9.45951C11.6691 10.0104 9.50183 15.1981 9.22906 17.7231V35.4746Z" fill="#35B4F6"/>
<path d="M28.2733 29.1238L31.4721 32.414C27.6633 36.9437 21.2061 38.0251 18.4536 37.9996V33.2556C23.6908 33.0108 27.1822 30.3991 28.2733 29.1238Z" fill="#46C4FF"/>
<path d="M142.896 36.48L146.237 29.0024H145.366L139.758 15.3182H143.796L147.835 25.6331L152.048 15.3182H156L146.847 36.48H142.896Z" fill="#102D47"/>
<path d="M136.158 29.9778C134.647 29.9778 133.436 29.6034 132.526 28.8547C131.615 28.1059 131.16 26.7759 131.16 24.8647V18.4807H128.69V15.3182H131.16L131.596 11.3873H134.879V15.3182H138.773V18.4807H134.879V24.8942C134.879 25.6036 135.024 26.0961 135.315 26.372C135.625 26.6281 136.148 26.7562 136.884 26.7562H138.686V29.9778H136.158Z" fill="#102D47"/>
<path d="M119.088 29.9778V15.3182H122.4L122.749 18.0669C123.272 17.1211 123.979 16.3724 124.87 15.8207C125.78 15.2493 126.846 14.9636 128.066 14.9636V18.9536H127.02C126.207 18.9536 125.48 19.0816 124.841 19.3378C124.202 19.5939 123.698 20.0373 123.33 20.6678C122.981 21.2983 122.807 22.1751 122.807 23.2982V29.9778H119.088Z" fill="#102D47"/>
<path d="M109.596 30.3324C108.144 30.3324 106.856 30.0172 105.732 29.3867C104.609 28.7561 103.727 27.8695 103.088 26.7267C102.449 25.5839 102.129 24.2637 102.129 22.7662C102.129 21.249 102.439 19.8993 103.059 18.7171C103.698 17.5349 104.57 16.6187 105.674 15.9684C106.797 15.2985 108.115 14.9636 109.626 14.9636C111.04 14.9636 112.289 15.2788 113.374 15.9093C114.458 16.5399 115.301 17.4068 115.902 18.5102C116.521 19.5939 116.831 20.8057 116.831 22.1456C116.831 22.3623 116.822 22.5889 116.802 22.8253C116.802 23.0618 116.793 23.3081 116.773 23.5642H105.819C105.897 24.707 106.284 25.6036 106.981 26.2538C107.698 26.904 108.56 27.2291 109.567 27.2291C110.323 27.2291 110.952 27.0616 111.456 26.7267C111.979 26.372 112.366 25.9188 112.618 25.3671H116.396C116.124 26.2932 115.669 27.1404 115.03 27.9089C114.41 28.6576 113.635 29.2487 112.705 29.6822C111.795 30.1157 110.759 30.3324 109.596 30.3324ZM109.626 18.0373C108.715 18.0373 107.911 18.3033 107.214 18.8353C106.517 19.3476 106.071 20.1358 105.877 21.1998H113.054C112.996 20.2343 112.647 19.4659 112.008 18.8944C111.369 18.323 110.575 18.0373 109.626 18.0373Z" fill="#102D47"/>
<path d="M84.5111 36.48V15.3182H87.8235L88.2303 17.4167C88.6952 16.7664 89.3054 16.195 90.0608 15.7024C90.8357 15.2099 91.8333 14.9636 93.0536 14.9636C94.4096 14.9636 95.6202 15.2985 96.6856 15.9684C97.751 16.6384 98.5936 17.5546 99.2135 18.7171C99.8333 19.8796 100.143 21.1998 100.143 22.6776C100.143 24.1553 99.8333 25.4755 99.2135 26.638C98.5936 27.7808 97.751 28.6872 96.6856 29.3571C95.6202 30.0073 94.4096 30.3324 93.0536 30.3324C91.9688 30.3324 91.0197 30.1256 90.2061 29.7118C89.3926 29.298 88.7339 28.7167 88.2303 27.968V36.48H84.5111ZM92.2691 27.0222C93.4507 27.0222 94.4289 26.6183 95.2038 25.8104C95.9786 25.0026 96.366 23.9583 96.366 22.6776C96.366 21.3968 95.9786 20.3427 95.2038 19.5151C94.4289 18.6876 93.4507 18.2738 92.2691 18.2738C91.0681 18.2738 90.0802 18.6876 89.3054 19.5151C88.5499 20.323 88.1722 21.3673 88.1722 22.648C88.1722 23.9287 88.5499 24.9829 89.3054 25.8104C90.0802 26.6183 91.0681 27.0222 92.2691 27.0222Z" fill="#102D47"/>
<path d="M74.6773 30.3324C73.2826 30.3324 72.0235 30.0073 70.9 29.3571C69.7959 28.7069 68.9145 27.8104 68.2559 26.6676C67.6167 25.505 67.2971 24.1652 67.2971 22.648C67.2971 21.1308 67.6264 19.8008 68.285 18.658C68.9436 17.4955 69.8249 16.5891 70.9291 15.9389C72.0526 15.2887 73.3116 14.9636 74.7063 14.9636C76.0816 14.9636 77.3214 15.2887 78.4255 15.9389C79.549 16.5891 80.4304 17.4955 81.0696 18.658C81.7282 19.8008 82.0575 21.1308 82.0575 22.648C82.0575 24.1652 81.7282 25.505 81.0696 26.6676C80.4304 27.8104 79.549 28.7069 78.4255 29.3571C77.302 30.0073 76.0526 30.3324 74.6773 30.3324ZM74.6773 27.0518C75.6458 27.0518 76.4884 26.6873 77.2051 25.9582C77.9219 25.2095 78.2802 24.1061 78.2802 22.648C78.2802 21.1899 77.9219 20.0964 77.2051 19.3673C76.4884 18.6186 75.6555 18.2442 74.7063 18.2442C73.7184 18.2442 72.8661 18.6186 72.1494 19.3673C71.4521 20.0964 71.1034 21.1899 71.1034 22.648C71.1034 24.1061 71.4521 25.2095 72.1494 25.9582C72.8661 26.6873 73.7087 27.0518 74.6773 27.0518Z" fill="#102D47"/>
<path d="M57.3688 29.9778V15.3182H60.6812L61.0298 18.0669C61.5528 17.1211 62.2599 16.3724 63.1509 15.8207C64.0613 15.2493 65.1267 14.9636 66.3471 14.9636V18.9536H65.3011C64.4875 18.9536 63.7611 19.0816 63.1219 19.3378C62.4826 19.5939 61.979 20.0373 61.611 20.6678C61.2623 21.2983 61.0879 22.1751 61.0879 23.2982V29.9778H57.3688Z" fill="#102D47"/>
<path d="M40.6784 29.9778V9.28889H48.2039C49.831 9.28889 51.1773 9.56474 52.2427 10.1164C53.3081 10.6681 54.1022 11.4267 54.6253 12.3922C55.1483 13.3577 55.4098 14.4414 55.4098 15.6433C55.4098 16.7861 55.1579 17.8403 54.6543 18.8058C54.1507 19.7516 53.3662 20.52 52.3008 21.1111C51.2354 21.6825 49.8698 21.9682 48.2039 21.9682H44.3975V29.9778H40.6784ZM44.3975 18.8944H47.9714C49.2693 18.8944 50.1991 18.6087 50.7608 18.0373C51.3419 17.4462 51.6325 16.6482 51.6325 15.6433C51.6325 14.6187 51.3419 13.8207 50.7608 13.2493C50.1991 12.6582 49.2693 12.3627 47.9714 12.3627H44.3975V18.8944Z" fill="#102D47"/>
</svg>
